<svg xmlns="http://www.w3.org/2000/svg" xmlns:xlink="http://www.w3.org/1999/xlink" width="24" height="24" version="1.1" viewBox="0 0 24 24"><title>icon/admin/l/s</title><g id="规范" fill="none" fill-rule="evenodd" stroke="none" stroke-width="1"><g id="NutBox-icon" transform="translate(-372.000000, -362.000000)"><g id="icon/admin/l/s" transform="translate(372.000000, 362.000000)"><rect id="Rectangle-3" width="24" height="24" x="0" y="0" fill="#D8D8D8" opacity="0"/><circle id="椭圆形" cx="13" cy="8" r="5" fill="#FFDB1B"/><path id="形状结合" fill="#FFDB1B" d="M12,11 C16.4118761,11 20.0823002,14.8799851 20.8516671,20.0004379 L18,20 L18,22 L3,22 C3,16.02612 6.89624196,11.1644818 11.7522704,11.0040866 Z"/><circle id="椭圆形备份-2" cx="19.5" cy="18.5" r="3.5" fill="#FFDB1B"/><g id="编组-5" stroke="#FFDB1B" stroke-linecap="round" stroke-linejoin="round" stroke-width="2" transform="translate(18.500000, 9.000000)"><line id="直线" x1=".5" x2=".5" y1="1.5" y2="6"/><line id="直线-2" x1=".5" x2="3.5" y1="1" y2="1"/><line id="直线-2" x1=".5" x2="3.5" y1="4" y2="4"/></g><circle id="椭圆形" cx="12" cy="7" r="4" stroke="#242629" stroke-linecap="round" stroke-width="2"/><circle id="椭圆形备份-2" cx="18" cy="18" r="3" stroke="#242629" stroke-linecap="round" stroke-width="2"/><line id="直线" x1="18" x2="18" y1="9.5" y2="14" stroke="#242629" stroke-linecap="round" stroke-linejoin="round" stroke-width="2"/><line id="直线-2" x1="18" x2="21" y1="9" y2="9" stroke="#242629" stroke-linecap="round" stroke-linejoin="round" stroke-width="2"/><line id="直线-2" x1="18" x2="21" y1="12" y2="12" stroke="#242629" stroke-linecap="round" stroke-linejoin="round" stroke-width="2"/><path id="路径" stroke="#242629" stroke-linecap="round" stroke-width="2" d="M12,11 C7.02943725,11 3,15.0294373 3,20 C3,20.3677978 3.02206234,20.7304427 3.06493581,21.0866835"/></g></g></g></svg>